<svg width="348" height="98" viewBox="0 0 348 98" fill="none" xmlns="http://www.w3.org/2000/svg">
<path d="M48.7064 55.6947C52.5189 55.6947 55.6096 52.6041 55.6096 48.7916C55.6096 44.9791 52.5189 41.8884 48.7064 41.8884C44.8939 41.8884 41.8032 44.9791 41.8032 48.7916C41.8032 52.6041 44.8939 55.6947 48.7064 55.6947Z" fill="white"/>
<path fill-rule="evenodd" clip-rule="evenodd" d="M76.0957 48.8138C76.1035 54.855 74.0991 60.7267 70.3989 65.5021L75.3361 70.4169C80.3053 64.3094 83.0183 56.6762 83.0183 48.8026C83.0183 40.929 80.3053 33.2958 75.3361 27.1884L70.3989 32.1033C74.1023 36.8855 76.1068 42.7653 76.0957 48.8138Z" fill="white"/>
<path fill-rule="evenodd" clip-rule="evenodd" d="M85.635 80.738C93.3154 71.8755 97.5433 60.5411 97.5433 48.8137C97.5433 37.0863 93.3154 25.752 85.635 16.8894L80.2287 22.2734C86.4883 29.6959 89.9216 39.0929 89.9216 48.8025C89.9216 58.5122 86.4883 67.9091 80.2287 75.3317L85.635 80.738Z" fill="white"/>
<path fill-rule="evenodd" clip-rule="evenodd" d="M62.2894 48.8137C62.2784 51.1699 61.6465 53.4816 60.4574 55.5158L65.4617 60.52C67.8907 57.0788 69.1948 52.97 69.1948 48.7578C69.1948 44.5457 67.8907 40.4369 65.4617 36.9957L60.4574 41.9999C61.6656 44.0669 62.2982 46.4196 62.2894 48.8137Z" fill="white"/>
<path fill-rule="evenodd" clip-rule="evenodd" d="M48.7288 89.8753C42.4526 89.8816 36.2579 88.4539 30.6177 85.701C24.9774 82.9482 20.0408 78.943 16.1845 73.9912C12.3283 69.0394 9.65448 63.2719 8.3672 57.1292C7.07991 50.9864 7.21319 44.6307 8.75687 38.5473C10.3005 32.4639 13.2138 26.8137 17.2743 22.0279C21.3347 17.2422 26.4349 13.4474 32.1856 10.9334C37.9363 8.41942 44.1854 7.25262 50.4558 7.5221C56.7262 7.79158 62.8521 9.49016 68.3659 12.4883L63.2053 17.6265C57.677 15.0568 51.5637 14.0073 45.4948 14.5861C39.426 15.1648 33.6212 17.3509 28.6782 20.9192C23.7353 24.4875 19.833 29.309 17.3732 34.8871C14.9134 40.4652 13.9851 46.5981 14.6839 52.6543C15.3827 58.7104 17.6833 64.4709 21.3488 69.3422C25.0143 74.2135 29.9121 78.0196 35.5378 80.3685C41.1635 82.7174 47.3136 83.524 53.3548 82.7055C59.3959 81.8869 65.1096 79.4727 69.9074 75.7114L54.9617 60.8328C53.0416 61.8491 50.9013 62.3784 48.7288 62.3743C46.6748 62.3748 44.6475 61.9088 42.7999 61.0113C40.9524 60.1138 39.3329 58.8083 38.0636 57.1934C36.7944 55.5785 35.9086 53.6963 35.473 51.689C35.0375 49.6817 35.0637 47.6017 35.5495 45.606C36.0354 43.6102 36.9683 41.751 38.2778 40.1685C39.5872 38.5861 41.2391 37.3218 43.1086 36.471C44.9781 35.6203 47.0165 35.2053 49.0698 35.2575C51.1232 35.3096 53.1378 35.8276 54.9617 36.7722L60.0106 31.7456C57.3446 29.9824 54.3026 28.8682 51.1284 28.4924C47.9542 28.1165 44.7361 28.4893 41.7319 29.5811C38.7278 30.673 36.0212 32.4533 33.829 34.7795C31.6369 37.1058 30.0201 39.913 29.1083 42.9766C28.1966 46.0402 28.0151 49.2749 28.5785 52.4212C29.142 55.5676 30.4346 58.5381 32.3528 61.0949C34.2711 63.6517 36.7616 65.7236 39.6247 67.1445C42.4879 68.5655 45.6441 69.2961 48.8405 69.2775C50.0394 69.2688 51.2353 69.1567 52.4149 68.9424L58.0447 74.5722C53.5916 76.1755 48.799 76.5974 44.1342 75.7969C39.4695 74.9965 35.0917 73.0009 31.4279 70.0047C27.764 67.0085 24.9391 63.114 23.2286 58.7009C21.5181 54.2879 20.9803 49.507 21.6677 44.8242C22.3551 40.1415 24.2443 35.7168 27.1509 31.9815C30.0576 28.2463 33.8826 25.328 38.253 23.5112C42.6234 21.6944 47.3899 21.0412 52.088 21.6152C56.786 22.1891 61.2551 23.9707 65.0595 26.7861L80.318 11.5277C73.2096 5.52149 64.5324 1.67243 55.3091 0.434108C46.0858 -0.804215 36.7006 0.619864 28.2597 4.53838C19.8188 8.4569 12.6739 14.7066 7.66705 22.551C2.66019 30.3954 0 39.5076 0 48.8137C0 58.1198 2.66019 67.232 7.66705 75.0764C12.6739 82.9209 19.8188 89.1705 28.2597 93.089C36.7006 97.0075 46.0858 98.4316 55.3091 97.1933C64.5324 95.955 73.2096 92.1059 80.318 86.0998L74.934 80.6934C67.5284 86.701 58.2644 89.9469 48.7288 89.8753Z" fill="#21D8D8"/>
<path d="M136.549 70.6181C133.46 70.7368 130.383 70.1693 127.54 68.9563C124.697 67.7434 122.158 65.9151 120.106 63.6032C116.379 59.3812 114.385 53.9076 114.521 48.2778C114.352 42.868 116.263 37.5992 119.86 33.5554C121.99 31.2956 124.586 29.5259 127.467 28.3686C130.349 27.2114 133.448 26.6943 136.549 26.8533H161.123V34.4714H136.549C134.568 34.3926 132.594 34.7362 130.756 35.4796C128.919 36.2231 127.261 37.3492 125.892 38.7831C123.494 41.3717 122.127 44.7495 122.05 48.2778C121.835 51.9598 123.061 55.5809 125.468 58.3756C126.861 59.9381 128.589 61.1655 130.524 61.9663C132.458 62.767 134.548 63.1203 136.638 63H161.212V70.6181H136.549Z" fill="white"/>
<path d="M169.679 70.5957V26.8533H177.297V70.5957H169.679Z" fill="white"/>
<path d="M219.476 70.6181H186.122V63.0671H219.476C221.639 63.1771 223.77 62.5116 225.486 61.1904C226.126 60.6922 226.646 60.0557 227.005 59.3284C227.365 58.6011 227.556 57.8019 227.563 56.9906C227.57 56.1995 227.392 55.4177 227.043 54.7079C226.694 53.998 226.183 53.3797 225.553 52.9022C223.797 51.6156 221.65 50.9763 219.476 51.0927H198.767C196.895 51.1859 195.023 50.8995 193.265 50.2507C191.506 49.6019 189.897 48.604 188.535 47.3172C186.357 45.0991 185.137 42.1148 185.137 39.0065C185.137 35.8981 186.357 32.914 188.535 30.6959C189.897 29.4091 191.506 28.4112 193.265 27.7624C195.023 27.1136 196.895 26.8272 198.767 26.9204H231.786V34.5384H198.767C197.359 34.4604 195.978 34.9424 194.924 35.8789C194.481 36.2753 194.126 36.7607 193.884 37.3035C193.641 37.8464 193.516 38.4343 193.517 39.0288C193.502 39.6019 193.61 40.1715 193.833 40.6993C194.057 41.2272 194.391 41.7011 194.812 42.0895C195.896 43.0552 197.317 43.5531 198.767 43.4745H219.454C221.508 43.3866 223.559 43.7198 225.48 44.4536C227.401 45.1874 229.151 46.3064 230.624 47.7416C231.848 48.9831 232.813 50.4563 233.461 52.0751C234.11 53.6939 234.429 55.4257 234.399 57.1692C234.438 58.8934 234.128 60.6077 233.487 62.2087C232.846 63.8098 231.887 65.2645 230.669 66.4852C229.191 67.9095 227.438 69.0168 225.517 69.739C223.596 70.4613 221.548 70.7831 219.498 70.6851L219.476 70.6181Z" fill="white"/>
<path d="M272.892 70.6181H239.538V63.0671H272.892C275.055 63.1771 277.186 62.5116 278.901 61.1904C279.542 60.6922 280.061 60.0557 280.421 59.3284C280.781 58.6011 280.972 57.8019 280.979 56.9906C280.986 56.1995 280.808 55.4177 280.459 54.7079C280.11 53.998 279.599 53.3797 278.968 52.9022C277.213 51.6156 275.066 50.9763 272.892 51.0927H252.205C250.333 51.1859 248.461 50.8995 246.703 50.2507C244.944 49.6019 243.336 48.604 241.973 47.3172C239.795 45.0991 238.575 42.1148 238.575 39.0065C238.575 35.8981 239.795 32.914 241.973 30.6959C243.336 29.4091 244.944 28.4112 246.703 27.7624C248.461 27.1136 250.333 26.8272 252.205 26.9204H285.246V34.5384H252.205C250.797 34.4604 249.416 34.9424 248.362 35.8789C247.925 36.279 247.576 36.7657 247.338 37.308C247.1 37.8504 246.977 38.4364 246.977 39.0288C246.964 39.5996 247.07 40.1669 247.29 40.694C247.509 41.2211 247.836 41.6965 248.25 42.0895C249.334 43.0552 250.755 43.5531 252.205 43.4745H272.892C274.947 43.3813 276.999 43.712 278.921 44.4461C280.843 45.1802 282.593 46.302 284.062 47.7416C285.287 48.9831 286.251 50.4563 286.899 52.0751C287.548 53.6939 287.867 55.4257 287.838 57.1692C287.874 58.8912 287.565 60.603 286.928 62.2033C286.291 63.8035 285.339 65.2596 284.129 66.4852C282.649 67.9052 280.895 69.0096 278.975 69.7315C277.055 70.4535 275.008 70.7779 272.959 70.6851L272.892 70.6181Z" fill="white"/>
<path d="M324.744 31.0085C323.971 29.6597 322.892 28.5117 321.594 27.6575C320.725 27.028 319.672 26.7056 318.6 26.7415C317.58 26.8656 316.614 27.2675 315.808 27.9032C314.596 28.7012 313.58 29.7628 312.836 31.0085L289.089 70.5509H298.896L318.622 38.1128L326.241 50.7126H315.428L310.781 58.3084H330.776L338.193 70.5509H348L324.744 31.0085Z" fill="white"/>
</svg>
