<svg width="35" height="35" viewBox="0 0 35 35" fill="none" xmlns="http://www.w3.org/2000/svg">
<path d="M29.1667 5.83343C28.5726 5.28698 27.786 4.99852 26.9794 5.03133C26.1729 5.06414 25.4123 5.41554 24.8646 6.00843L14.8313 16.0418L13.125 21.8751L18.9583 20.1688L28.9917 10.2084C29.2962 9.93621 29.5428 9.60558 29.717 9.23617C29.8912 8.86675 29.9894 8.46609 30.0057 8.05799C30.0221 7.64989 29.9562 7.24267 29.8121 6.86052C29.6679 6.47837 29.4484 6.12909 29.1667 5.83343Z" stroke="#21D8D8" stroke-width="3.33333" stroke-linecap="round" stroke-linejoin="round"/>
<path d="M17.5 4.375H5.83333C5.44656 4.375 5.07563 4.52865 4.80214 4.80214C4.52865 5.07563 4.375 5.44656 4.375 5.83333V29.1667C4.375 29.5534 4.52865 29.9244 4.80214 30.1979C5.07563 30.4714 5.44656 30.625 5.83333 30.625H29.1667C29.5534 30.625 29.9244 30.4714 30.1979 30.1979C30.4714 29.9244 30.625 29.5534 30.625 29.1667V17.5" stroke="#242626" stroke-width="3.33333" stroke-linecap="round" stroke-linejoin="round"/>
</svg>
