<svg width="44" height="44" viewBox="0 0 44 44" fill="none" xmlns="http://www.w3.org/2000/svg">
<path d="M22.0327 24.93C23.7393 24.93 25.1227 23.5466 25.1227 21.84C25.1227 20.1334 23.7393 18.75 22.0327 18.75C20.3262 18.75 18.9427 20.1334 18.9427 21.84C18.9427 23.5466 20.3262 24.93 22.0327 24.93Z" fill="white"/>
<path fill-rule="evenodd" clip-rule="evenodd" d="M34.2928 21.8499C34.2963 24.5541 33.3991 27.1824 31.7428 29.3199L33.9528 31.5199C36.1771 28.7861 37.3915 25.3693 37.3915 21.8449C37.3915 18.3205 36.1771 14.9038 33.9528 12.1699L31.7428 14.3699C33.4005 16.5106 34.2977 19.1425 34.2928 21.8499Z" fill="white"/>
<path fill-rule="evenodd" clip-rule="evenodd" d="M38.5628 36.14C42.0006 32.1729 43.8931 27.0995 43.8931 21.85C43.8931 16.6006 42.0006 11.5271 38.5628 7.56006L36.1428 9.97003C38.9447 13.2925 40.4815 17.4988 40.4815 21.845C40.4815 26.1913 38.9447 30.3975 36.1428 33.72L38.5628 36.14Z" fill="white"/>
<path fill-rule="evenodd" clip-rule="evenodd" d="M28.1128 21.85C28.1079 22.9047 27.825 23.9395 27.2928 24.85L29.5328 27.09C30.62 25.5497 31.2038 23.7105 31.2038 21.825C31.2038 19.9396 30.62 18.1004 29.5328 16.5601L27.2928 18.8C27.8336 19.7252 28.1167 20.7784 28.1128 21.85Z" fill="white"/>
<path fill-rule="evenodd" clip-rule="evenodd" d="M22.0428 40.23C19.2334 40.2329 16.4606 39.5938 13.9359 38.3616C11.4112 37.1293 9.20144 35.3365 7.47531 33.12C5.74919 30.9035 4.55232 28.3218 3.9761 25.5722C3.39989 22.8226 3.45955 19.9776 4.15053 17.2546C4.84151 14.5315 6.14556 12.0024 7.96309 9.86015C9.78062 7.71794 12.0636 6.01934 14.6377 4.89402C17.2118 3.7687 20.0091 3.24642 22.8158 3.36705C25.6226 3.48767 28.3647 4.24799 30.8328 5.59001L28.5228 7.88999C26.0482 6.73972 23.3117 6.26998 20.5952 6.52903C17.8787 6.78809 15.2803 7.76662 13.0677 9.36387C10.8552 10.9611 9.10842 13.1193 8.00737 15.6162C6.90632 18.1131 6.49078 20.8583 6.80357 23.5691C7.11637 26.28 8.14618 28.8585 9.78693 31.039C11.4277 33.2195 13.62 34.9232 16.1382 35.9746C18.6564 37.026 21.4093 37.3871 24.1135 37.0207C26.8176 36.6543 29.3752 35.5736 31.5228 33.89L24.8328 27.23C23.9733 27.6849 23.0152 27.9219 22.0428 27.92C21.1234 27.9203 20.2159 27.7117 19.3889 27.3099C18.5619 26.9082 17.837 26.3238 17.2688 25.6009C16.7007 24.8781 16.3042 24.0356 16.1092 23.1371C15.9143 22.2386 15.926 21.3075 16.1435 20.4142C16.361 19.5208 16.7785 18.6886 17.3647 17.9803C17.9508 17.2719 18.6902 16.706 19.5271 16.3252C20.3639 15.9444 21.2763 15.7586 22.1954 15.782C23.1146 15.8053 24.0164 16.0372 24.8328 16.46L27.0928 14.21C25.8994 13.4207 24.5377 12.922 23.1169 12.7538C21.6961 12.5855 20.2556 12.7524 18.9108 13.2411C17.5661 13.7298 16.3546 14.5268 15.3734 15.568C14.3921 16.6093 13.6684 17.8659 13.2603 19.2372C12.8521 20.6085 12.7709 22.0565 13.0231 23.4648C13.2753 24.8732 13.8539 26.2029 14.7126 27.3473C15.5712 28.4918 16.686 29.4192 17.9676 30.0553C19.2492 30.6913 20.662 31.0183 22.0928 31.01C22.6294 31.0062 23.1648 30.9559 23.6928 30.86L26.2128 33.38C24.2195 34.0977 22.0742 34.2866 19.9862 33.9283C17.8981 33.57 15.9386 32.6767 14.2985 31.3356C12.6585 29.9944 11.394 28.2511 10.6284 26.2757C9.8627 24.3004 9.62197 22.1604 9.92967 20.0642C10.2374 17.9681 11.083 15.9876 12.3841 14.3156C13.6852 12.6436 15.3973 11.3373 17.3536 10.5241C19.3099 9.71087 21.4435 9.41848 23.5464 9.6754C25.6493 9.93231 27.6498 10.7298 29.3528 11.99L36.1828 5.16001C33.0009 2.47153 29.1168 0.748614 24.9883 0.194316C20.8597 -0.359983 16.6587 0.277464 12.8804 2.03147C9.10208 3.78548 5.90388 6.58296 3.6627 10.0943C1.42153 13.6056 0.230774 17.6844 0.230774 21.85C0.230774 26.0156 1.42153 30.0944 3.6627 33.6058C5.90388 37.1171 9.10208 39.9146 12.8804 41.6686C16.6587 43.4226 20.8597 44.06 24.9883 43.5057C29.1168 42.9514 33.0009 41.2285 36.1828 38.54L33.7728 36.12C30.4579 38.8091 26.3111 40.2621 22.0428 40.23Z" fill="#21D8D8"/>
</svg>
